HIERARCHY
ROOT root
{
	OFFSET 0.000000 0.000000 0.000000
	CHANNELS 6 Xposition Yposition Zposition Zrotation Yrotation Xrotation
	JOINT lhip
	{
		OFFSET 0.058581 -0.082280 -0.017664
		CHANNELS 3 Zrotation Yrotation Xrotation
		JOINT lknee
		{
			OFFSET 0.043451 -0.386469 0.008037
			CHANNELS 3 Zrotation Yrotation Xrotation
			JOINT lankle
			{
				OFFSET -0.014790 -0.426874 -0.037428
				CHANNELS 3 Zrotation Yrotation Xrotation
				JOINT ltoe
				{
					OFFSET 0.041054 -0.060286 0.122042
					CHANNELS 3 Zrotation Yrotation Xrotation
					End Site
					{
						OFFSET 0.000000 0.000000 0.000000
					}
				}
			}
		}
	}
	JOINT rhip
	{
		OFFSET -0.060310 -0.090513 -0.013543
		CHANNELS 3 Zrotation Yrotation Xrotation
		JOINT rknee
		{
			OFFSET -0.043257 -0.383688 -0.004843
			CHANNELS 3 Zrotation Yrotation Xrotation
			JOINT rankle
			{
				OFFSET 0.019056 -0.420046 -0.034562
				CHANNELS 3 Zrotation Yrotation Xrotation
				JOINT rtoe
				{
					OFFSET -0.034840 -0.062106 0.130323
					CHANNELS 3 Zrotation Yrotation Xrotation
					End Site
					{
						OFFSET 0.000000 0.000000 0.000000
					}
				}
			}
		}
	}
	JOINT lowerback
	{
		OFFSET 0.004439 0.124404 -0.038385
		CHANNELS 3 Zrotation Yrotation Xrotation
		JOINT upperback
		{
			OFFSET 0.004488 0.137956 0.026820
			CHANNELS 3 Zrotation Yrotation Xrotation
			JOINT chest
			{
				OFFSET -0.002265 0.056032 0.002855
				CHANNELS 3 Zrotation Yrotation Xrotation
				JOINT lowerneck
				{
					OFFSET -0.013390 0.211636 -0.033468
					CHANNELS 3 Zrotation Yrotation Xrotation
					JOINT upperneck
					{
						OFFSET 0.010113 0.088937 0.050410
						CHANNELS 3 Zrotation Yrotation Xrotation
						End Site
						{
							OFFSET 0.000000 0.000000 0.000000
						}
					}
				}
				JOINT lclavicle
				{
					OFFSET 0.071702 0.114000 -0.018898
					CHANNELS 3 Zrotation Yrotation Xrotation
					JOINT lshoulder
					{
						OFFSET 0.122921 0.045205 -0.019046
						CHANNELS 3 Zrotation Yrotation Xrotation
						JOINT lelbow
						{
							OFFSET 0.255332 -0.015649 -0.022946
							CHANNELS 3 Zrotation Yrotation Xrotation
							JOINT lwrist
							{
								OFFSET 0.265709 0.012698 -0.007375
								CHANNELS 3 Zrotation Yrotation Xrotation
								End Site
								{
									OFFSET 0.000000 0.000000 0.000000
								}
							}
						}
					}
				}
				JOINT rclavicle
				{
					OFFSET -0.082954 0.112472 -0.023707
					CHANNELS 3 Zrotation Yrotation Xrotation
					JOINT rshoulder
					{
						OFFSET -0.113228 0.046853 -0.008472
						CHANNELS 3 Zrotation Yrotation Xrotation
						JOINT relbow
						{
							OFFSET -0.260127 -0.014369 -0.031269
							CHANNELS 3 Zrotation Yrotation Xrotation
							JOINT rwrist
							{
								OFFSET -0.269108 0.006794 -0.006027
								CHANNELS 3 Zrotation Yrotation Xrotation
								End Site
								{
									OFFSET 0.000000 0.000000 0.000000
								}
							}
						}
					}
				}
			}
		}
	}
}
MOTION
Frames: 8
Frame Time: 0.033333
0.029078 -0.161154 0.937075 179.581799 0.189447 98.829116 3.345450 -3.412581 -12.351508 -13.346392 -4.179723 53.105466 0.603790 6.692334 -6.446246 0.000000 -0.000000 0.000000 3.045713 -3.813657 -8.074238 -0.719519 -6.275188 45.917850 1.093870 -10.584969 -2.989360 0.000000 -0.000000 0.000000 0.873808 1.346864 26.497355 -3.104551 -2.325803 -2.255808 2.126240 0.543554 6.971205 -5.456041 -1.982071 -4.577431 8.093889 13.672831 -13.565838 10.429567 -17.028565 -10.946996 -41.077560 -20.135262 -0.950890 133.599630 -50.634348 -110.448831 23.868394 6.136426 -33.484761 -21.445987 20.290079 -10.160961 40.098127 18.262476 -2.282631 -104.590552 66.012748 -89.217019 -4.137052 0.894574 -33.353859 
0.033832 -0.078866 0.988104 -179.734568 0.332163 94.222990 4.653127 -0.789444 -2.184503 -10.922260 -5.059900 46.800700 -6.198823 4.593201 7.640793 0.000000 -0.000000 0.000000 3.125837 -5.746413 0.328402 -4.648986 -6.199473 42.066283 6.696015 -7.478856 15.792998 0.000000 -0.000000 0.000000 0.230976 0.850108 24.366225 -3.543215 -2.040056 -1.830651 2.710678 0.145928 6.650362 -5.382162 -3.743132 3.986650 9.545575 16.437178 -11.848924 11.546149 -8.497153 -11.935453 -43.907810 -18.975142 1.977949 144.692502 -51.713942 -121.144208 21.552282 6.212903 -34.868881 -23.280153 11.875415 -10.213182 41.492442 12.859437 1.305027 -113.420628 73.845704 -99.726708 -2.923853 1.240942 -33.586923 
0.036659 -0.010262 1.030973 -178.779374 -0.404603 94.078852 3.171424 -2.065107 -3.215528 -9.651218 -4.402814 50.299504 -2.096145 8.637511 6.683945 0.000000 -0.000000 0.000000 3.949643 -1.892812 -3.963196 -4.069859 -3.470376 50.148705 4.027040 -10.242342 11.405872 0.000000 -0.000000 0.000000 -1.054337 -0.348236 20.997531 -3.313596 -1.335614 -0.415802 2.106162 -0.363249 5.551097 -5.084914 -4.770193 7.746948 9.694051 17.484872 -12.607623 9.573500 -2.904231 -9.077475 -40.746784 -15.241224 1.582754 153.328973 -47.266810 -127.695319 24.039965 6.237530 -32.412073 -21.601093 6.067753 -7.584476 39.510606 5.965501 2.937130 -122.040289 77.172372 -107.647321 -1.369785 2.850382 -34.259900 
0.038281 0.049713 1.065578 -177.766161 -1.243341 92.458833 1.338016 -4.837748 -5.106587 -7.556130 -2.315706 54.428479 1.445887 14.020610 1.765127 0.000000 -0.000000 0.000000 2.512303 0.392670 -8.980317 -4.809214 -5.127163 56.753600 2.379761 -15.775122 8.729232 0.000000 -0.000000 0.000000 -1.758852 -1.262071 22.139843 -2.748186 -0.661827 0.469248 1.489657 -0.631227 6.832280 -4.315058 -4.792822 4.893756 8.659326 15.758364 -12.762176 5.497978 1.066129 -6.061203 -36.821430 -10.758039 0.805162 155.062791 -42.590530 -127.707586 30.851189 3.753548 -27.155826 -16.830171 1.567882 -5.615347 35.259557 -0.887512 4.287910 -116.496429 76.967823 -103.329794 -0.539749 3.318526 -35.651013 
0.040691 0.106039 1.092381 -178.424729 -0.684354 89.815379 1.793162 -3.419161 -5.770388 -9.105718 -3.685860 54.614131 0.791831 13.729129 -2.926265 0.000000 -0.000000 0.000000 1.704242 -0.591248 -12.380192 -4.645744 -4.840994 55.666714 2.085682 -15.397156 6.337121 0.000000 -0.000000 0.000000 -1.249698 -1.864390 27.065788 -2.992232 0.146764 -1.691762 1.481874 -0.326020 9.301666 -4.013715 -4.102239 2.308656 8.230310 14.570223 -12.509948 2.345207 5.210022 -4.098078 -36.667835 -4.545541 -0.262245 155.198104 -42.369421 -127.245998 39.432924 1.388677 -24.824352 -12.379718 -0.319492 -3.061767 34.065786 -4.831072 2.432987 -91.722270 78.064777 -81.614832 -5.052101 2.171255 -34.121991 
0.041997 0.161732 1.108610 -179.300810 -0.282138 89.454171 2.372118 -1.643269 -8.925399 -11.801607 -5.441582 50.804029 0.518273 11.552070 -7.564111 0.000000 -0.000000 0.000000 0.971153 -1.547069 -15.996768 -2.364590 -3.727954 46.456170 5.043546 -13.076680 4.760610 0.000000 -0.000000 0.000000 -0.750359 -2.020179 28.760182 -3.166433 0.807854 -2.368702 1.628963 -0.196431 10.705241 -3.854589 -3.429314 1.553117 7.729615 13.996145 -13.213618 0.600149 10.544283 -2.224789 -39.198613 1.125278 0.149268 154.767277 -47.176475 -127.275099 41.889067 1.623775 -25.643547 -9.923255 -2.775939 -0.645871 34.507166 -5.802319 1.448435 -50.916800 77.476005 -42.924229 -7.554795 2.089510 -31.064676 
0.042943 0.217919 1.115435 -179.860386 -0.253717 89.969856 2.169803 -1.837104 -12.655375 -12.345515 -5.893049 43.687990 0.400805 11.298515 -10.158045 0.000000 -0.000000 0.000000 0.447194 -1.433096 -18.605885 -0.961123 -2.161243 34.011461 8.594652 -10.669392 5.992172 0.000000 -0.000000 0.000000 -0.247976 -1.728976 29.616537 -3.548327 1.279536 -2.577751 2.030031 0.074539 10.900436 -4.243247 -3.673681 2.143331 7.941505 13.476188 -15.297051 0.849738 15.332945 0.785042 -41.413079 8.108516 0.973317 156.135278 -55.974476 -130.676599 31.253551 3.018025 -29.043451 -9.598376 -5.644974 1.991182 35.058299 -7.537073 0.674956 -17.853363 73.404895 -11.547042 -5.034211 2.130560 -28.562412 
0.043541 0.275409 1.109035 -179.635465 -0.826527 89.827137 0.643926 -3.193151 -15.387544 -11.274427 -7.301177 34.932451 1.580592 13.484558 -11.976998 0.000000 -0.000000 0.000000 -0.181909 -2.156430 -19.425075 -1.189907 -0.860367 21.777023 10.027435 -12.092148 6.195793 0.000000 -0.000000 0.000000 0.323495 -1.077494 30.979265 -3.734464 1.516747 -3.717599 2.391627 0.518164 12.217126 -5.116411 -4.532980 2.177411 8.493268 12.252253 -17.420133 2.864127 18.608183 3.903277 -40.917474 14.489597 3.886832 166.970128 -69.605420 -144.805071 27.162877 3.586708 -30.772473 -10.866494 -8.576696 4.763129 35.409230 -12.022948 1.831951 1.868874 67.800700 6.352104 -6.031897 2.269714 -24.717399 
